<?xml version="1.0" standalone="no"?>
<!DOCTYPE svg PUBLIC "-//W3C//DTD SVG 20010904//EN"
 "http://www.w3.org/TR/2001/REC-SVG-20010904/DTD/svg10.dtd">
<svg version="1.0" xmlns="http://www.w3.org/2000/svg"
 width="2500.000000pt" height="2500.000000pt" viewBox="0 0 2500.000000 2500.000000"
 preserveAspectRatio="xMidYMid meet">
<metadata>
Created by potrace 1.11, written by Peter Selinger 2001-2013
</metadata>
<g transform="translate(0.000000,2500.000000) scale(0.100000,-0.100000)"
fill="#000000" stroke="none">
<path d="M16115 14953 c-330 -39 -538 -96 -790 -218 -439 -212 -853 -615
-1090 -1060 -357 -672 -353 -1569 12 -2245 109 -203 266 -403 466 -596 384
-372 808 -575 1347 -646 142 -18 499 -15 645 6 573 83 1062 347 1452 785 265
297 435 608 529 971 89 342 98 770 23 1132 -122 594 -504 1136 -1064 1510
-284 190 -609 309 -965 353 -113 14 -475 19 -565 8z m565 -648 c195 -38 311
-79 480 -166 474 -245 822 -703 932 -1227 20 -94 23 -136 23 -347 -1 -210 -3
-253 -23 -342 -118 -538 -466 -985 -961 -1232 -537 -269 -1234 -227 -1730 105
-256 170 -501 448 -627 710 -57 120 -116 300 -140 429 -15 81 -19 147 -19 345
1 216 3 257 23 349 66 303 179 534 376 768 279 333 665 555 1066 612 41 6 86
13 100 15 63 11 419 -3 500 -19z"/>
<path d="M20240 14955 c-8 -2 -49 -9 -90 -15 -380 -62 -760 -338 -948 -690
-162 -301 -205 -661 -116 -968 58 -200 149 -348 318 -518 228 -228 443 -341
926 -489 215 -66 279 -90 415 -158 200 -99 319 -202 390 -338 103 -197 75
-441 -75 -644 -71 -95 -180 -178 -325 -246 -133 -62 -220 -82 -360 -83 -112 0
-127 2 -223 36 -56 19 -139 57 -184 84 -100 60 -220 177 -268 262 -19 34 -40
69 -45 78 -9 13 -48 7 -318 -50 -170 -36 -310 -66 -312 -66 -8 0 35 -113 70
-186 184 -383 572 -677 1022 -776 133 -29 415 -31 546 -5 341 69 674 264 872
509 216 270 317 563 302 881 -15 316 -157 592 -428 825 -212 184 -440 304
-789 417 -383 124 -539 191 -675 292 -96 71 -142 122 -188 211 -52 99 -70 172
-70 282 1 169 52 316 157 446 293 365 829 367 1122 4 29 -35 67 -94 85 -132
18 -37 39 -68 46 -68 14 0 581 118 600 125 9 3 4 28 -18 92 -160 454 -568 795
-1048 877 -82 14 -339 21 -391 11z"/>
<path d="M3350 12570 l0 -2360 310 0 310 0 0 1128 1 1127 22 -26 c12 -14 366
-521 787 -1127 l765 -1101 379 -1 378 0 -18 28 c-9 15 -370 532 -801 1150
-431 617 -783 1127 -783 1133 0 5 313 547 695 1204 382 657 695 1196 695 1199
0 3 -161 6 -357 6 l-358 0 -690 -1191 c-379 -656 -695 -1199 -702 -1208 -10
-13 -12 240 -13 1192 l0 1207 -310 0 -310 0 0 -2360z"/>
<path d="M6439 14908 c5 -13 427 -1018 939 -2233 512 -1216 956 -2272 987
-2348 32 -75 61 -137 64 -137 4 0 454 1059 1000 2353 547 1293 998 2360 1003
2370 8 16 -9 17 -323 15 l-333 -3 -671 -1617 c-369 -890 -674 -1620 -677
-1623 -2 -3 -303 716 -668 1597 -365 882 -668 1613 -673 1626 l-10 22 -323 0
-324 0 9 -22z"/>
<path d="M10738 14858 c435 -792 1391 -2575 1400 -2610 9 -34 12 -311 12
-1042 l0 -996 310 0 310 0 0 1001 c0 695 3 1013 11 1044 6 24 332 635 724
1357 l713 1313 -351 3 c-193 1 -354 -1 -357 -5 -4 -5 -241 -454 -526 -1000
-285 -546 -522 -992 -525 -993 -3 0 -241 450 -530 1000 l-524 1000 -353 0
-353 0 39 -72z"/>
</g>
</svg>
